<?xml version="1.0" standalone="no"?>
<!DOCTYPE svg PUBLIC "-//W3C//DTD SVG 20010904//EN"
 "http://www.w3.org/TR/2001/REC-SVG-20010904/DTD/svg10.dtd">
<svg version="1.0" xmlns="http://www.w3.org/2000/svg"
 width="225.000000pt" height="225.000000pt" viewBox="0 0 225.000000 225.000000"
 preserveAspectRatio="xMidYMid meet">

<g transform="translate(0.000000,225.000000) scale(0.100000,-0.100000)"
fill="#000000" stroke="none">
<path d="M1010 2240 c-146 -16 -262 -51 -400 -121 -406 -208 -643 -643 -600
-1101 13 -140 48 -258 115 -393 112 -226 278 -393 502 -504 81 -40 215 -86
283 -97 l40 -7 0 392 0 391 -145 0 -145 0 0 165 0 165 145 0 145 0 0 168 c0
175 9 232 49 309 46 92 130 158 236 189 49 14 86 16 210 11 82 -3 158 -8 168
-12 15 -6 17 -23 17 -145 l0 -138 -107 -3 c-123 -5 -163 -21 -197 -79 -17 -29
-21 -57 -24 -167 l-4 -132 159 -3 159 -3 -25 -162 -24 -163 -134 0 -133 0 0
-391 0 -392 40 7 c119 19 301 95 420 176 76 52 194 162 248 233 341 443 311
1061 -71 1464 -159 167 -365 281 -592 327 -93 19 -242 26 -335 16z"/>
</g>
</svg>
