<?xml version="1.0" standalone="no"?>
<!DOCTYPE svg PUBLIC "-//W3C//DTD SVG 20010904//EN"
 "http://www.w3.org/TR/2001/REC-SVG-20010904/DTD/svg10.dtd">
<svg version="1.0" xmlns="http://www.w3.org/2000/svg"
 width="900.000000pt" height="900.000000pt" viewBox="0 0 900.000000 900.000000"
 preserveAspectRatio="xMidYMid meet">

<g transform="translate(0.000000,900.000000) scale(0.100000,-0.100000)"
fill="#000000" stroke="none">
<path d="M4165 8634 c-16 -2 -79 -9 -140 -15 -706 -70 -1426 -352 -2010 -787
-431 -321 -816 -750 -1088 -1210 -288 -486 -467 -1016 -543 -1607 -26 -201
-27 -739 -1 -945 61 -490 211 -971 437 -1407 l68 -132 -58 -208 c-113 -405
-391 -1400 -430 -1538 -55 -194 -52 -242 17 -307 34 -32 73 -48 118 -48 18 0
475 110 1015 244 l982 244 152 -73 c431 -206 817 -322 1290 -387 218 -30 743
-33 961 -4 1046 134 1932 600 2614 1373 553 625 886 1374 998 2243 28 213 25
738 -5 965 -103 785 -390 1461 -880 2077 -136 171 -449 484 -622 622 -140 113
-417 301 -555 379 -505 283 -1051 454 -1634 512 -138 13 -593 19 -686 9z m530
-359 c1032 -50 2045 -575 2698 -1398 420 -529 686 -1144 781 -1802 42 -287 47
-746 11 -1005 -108 -797 -424 -1479 -956 -2066 -307 -339 -728 -653 -1141
-849 -358 -169 -712 -275 -1123 -336 -203 -29 -632 -37 -852 -15 -491 49 -899
167 -1341 388 -148 74 -190 91 -225 90 -23 0 -423 -96 -890 -211 -466 -116
-851 -211 -856 -211 -4 0 16 87 46 193 137 492 229 819 318 1136 76 271 95
352 90 380 -4 20 -33 83 -65 141 -218 389 -382 876 -439 1305 -34 254 -42 611
-21 853 44 480 160 892 375 1327 173 350 340 594 602 881 311 341 666 605
1098 819 493 244 972 365 1515 384 107 3 206 6 220 4 14 -1 84 -4 155 -8z"/>
<path d="M2853 6665 c-109 -24 -197 -78 -299 -183 -206 -209 -337 -454 -390
-729 -27 -135 -24 -377 5 -518 61 -300 190 -576 413 -884 248 -343 382 -504
623 -750 384 -392 773 -680 1163 -862 234 -110 654 -262 852 -309 138 -32 325
-44 481 -31 230 20 380 69 577 188 203 123 327 243 392 378 74 153 127 424
114 576 -12 136 -91 232 -234 289 -27 11 -120 54 -207 96 -598 289 -668 317
-778 318 -127 1 -196 -40 -307 -186 -32 -43 -109 -138 -170 -211 -61 -72 -112
-134 -114 -136 -4 -5 -178 72 -298 131 -410 205 -766 538 -1045 976 l-34 53
45 47 c138 142 252 311 285 422 30 104 17 169 -85 412 -50 117 -131 312 -182
433 -50 121 -106 247 -123 280 -42 79 -113 150 -185 183 -55 25 -65 27 -247
29 -135 2 -208 -2 -252 -12z m373 -377 c16 -32 37 -81 219 -518 53 -129 108
-256 120 -281 l23 -45 -28 -52 c-31 -58 -74 -111 -196 -248 -96 -106 -124
-157 -131 -235 -9 -98 22 -175 141 -353 139 -207 243 -334 405 -497 281 -282
555 -464 972 -648 183 -80 257 -87 365 -35 71 33 201 171 379 399 42 55 81
101 85 103 13 5 250 -103 558 -254 l293 -143 -7 -63 c-8 -79 -47 -235 -70
-283 -22 -48 -124 -151 -200 -202 -77 -52 -192 -110 -277 -139 -136 -46 -369
-55 -549 -20 -177 35 -633 203 -868 321 -547 275 -1078 760 -1545 1410 -210
294 -334 543 -391 790 -22 96 -25 327 -6 420 43 200 109 324 256 481 107 115
128 124 298 124 l137 0 17 -32z"/>
</g>
</svg>
